<svg xmlns="http://www.w3.org/2000/svg" xmlns:xlink="http://www.w3.org/1999/xlink" width="1000"
    height="1000" viewBox="0 0 1000 1000">
    <defs>
        <style>
            .cls-1{fill:#7a664e;}.cls-2{fill:#ffdf71;}.cls-3{fill:#82c63c;}.cls-4{clip-path:url(#clip-path);}.cls-5{fill:#47342a;}.cls-6{clip-path:url(#clip-path-2);}.cls-7{fill:#4e351f;}.cls-8{clip-path:url(#clip-path-3);}.cls-9{fill:#caae5c;}.cls-10,.cls-11{fill:#ffe99a;}.cls-10{opacity:0.67;}.cls-12{fill:#70562e;}.cls-13{fill:#2b3d1f;}.cls-14{clip-path:url(#clip-path-4);}.cls-15{fill:#a7eb64;}.cls-16{fill:#64a030;}</style>
        <clipPath id="clip-path">
            <polygon class="cls-1"
                points="1155.75 10.26 1199.59 62.27 1419.75 57.38 1527.9 6.24 1635.18 58.19 1856.17 62.27 1899.76 10.13 1981.2 70.2 1931.01 171.75 1934.47 223.24 1886.85 255.15 1857.83 225.37 1688 226.52 1696.14 240.54 1635.36 263.68 1433.9 265.07 1357.62 240.26 1365.93 226.41 1196.39 226.26 1168.14 255.79 1121.33 223.48 1124.11 171.52 1073.69 69.82 1155.75 10.26" />
        </clipPath>
        <clipPath id="clip-path-2">
            <polygon class="cls-1"
                points="1158.61 13.88 1202.16 65.57 1420.9 60.7 1528.35 9.9 1634.93 61.5 1854.49 65.57 1897.8 13.76 1978.72 73.44 1928.84 174.33 1932.29 225.49 1884.97 257.19 1856.14 227.6 1687.41 228.75 1695.5 242.68 1635.11 265.67 1434.96 267.05 1359.17 242.4 1367.43 228.63 1198.99 228.49 1170.93 257.82 1124.42 225.73 1127.18 174.11 1077.08 73.06 1158.61 13.88" />
        </clipPath>
        <clipPath id="clip-path-3">
            <polygon class="cls-2"
                points="500 53.36 874.42 294.63 874.42 703.75 501.61 946.64 129.61 702.95 129.61 293.42 500 53.36" />
        </clipPath>
        <clipPath id="clip-path-4">
            <polygon class="cls-3"
                points="233.71 98.55 399.54 611.76 566.57 498.76 654.93 629.92 651.91 570 766.9 283.13 942.21 281.32 781.42 409.62 756 813.9 627.7 879.87 495.16 761.25 418.9 896.21 351.12 853.24 221 853.24 288.18 708.6 146.56 307.34 79.38 271.03 233.71 98.55" />
        </clipPath>
    </defs>
    <g id="Wynncraft_Logo" data-name="Wynncraft Logo">
        <g id="Ext_border" data-name="Ext border">
            <polygon class="cls-1"
                points="1155.75 10.26 1199.59 62.27 1419.75 57.38 1527.9 6.24 1635.18 58.19 1856.17 62.27 1899.76 10.13 1981.2 70.2 1931.01 171.75 1934.47 223.24 1886.85 255.15 1857.83 225.37 1688 226.52 1696.14 240.54 1635.36 263.68 1433.9 265.07 1357.62 240.26 1365.93 226.41 1196.39 226.26 1168.14 255.79 1121.33 223.48 1124.11 171.52 1073.69 69.82 1155.75 10.26" />
            <g class="cls-4">
                <path class="cls-5"
                    d="M1076.66,70.1l8.82,4.13,45.92,96.62-3.07,50.33,38.41,24.27,27-27.22L1377.86,221,1367,237.86,1481.16,272l129.3-2.43,74.44-32L1676.72,221l184.43-1.28,26.72,27.1L1927,221.76l-2.49-51.19,45.82-96.82,9.4-2.59,92.41-8.48v273.9L1953.12,495.2s-123.22-1.53-265.12,3.07-182.72-10.74-367.07-21.47-153.42,0-242.51-24.54-124.36-87.43-124.36-87.43-38.35-239.27-36.82-253.07S1025,37.37,1025,37.37Z" />
            </g>
        </g>
        <g id="Ext_border-2" data-name="Ext border">
            <polygon class="cls-1"
                points="1158.61 13.88 1202.16 65.57 1420.9 60.7 1528.35 9.9 1634.93 61.5 1854.49 65.57 1897.8 13.76 1978.72 73.44 1928.84 174.33 1932.29 225.49 1884.97 257.19 1856.14 227.6 1687.41 228.75 1695.5 242.68 1635.11 265.67 1434.96 267.05 1359.17 242.4 1367.43 228.63 1198.99 228.49 1170.93 257.82 1124.42 225.73 1127.18 174.11 1077.08 73.06 1158.61 13.88" />
            <g class="cls-6">
                <path class="cls-5"
                    d="M1080,73.35l8.76,4.09,45.62,96-3.05,50,38.16,24.12,26.79-27.05,183,2.74L1368.52,240,1481.91,274l128.46-2.41,74-31.81-8.13-16.45L1859.44,222,1886,248.94,1924.91,224l-2.48-50.85L1968,77l9.34-2.57L2069.1,66V338.1L1950.81,495.69s-122.41-1.53-263.4,3.05-181.54-10.67-364.69-21.34-152.43,0-240.94-24.38-123.56-86.86-123.56-86.86-38.09-237.72-36.57-251.43S1028.7,40.82,1028.7,40.82Z" />
            </g>
        </g>
    </g>
    <g id="Wynncraft_Icon" data-name="Wynncraft Icon">
        <polygon class="cls-7"
            points="500 3.33 916.38 273.65 916.38 731.19 501.01 996.67 86.84 726.35 86.84 266.79 500 3.33" />
        <polygon class="cls-2"
            points="500 53.36 874.42 294.63 874.42 703.75 501.61 946.64 129.61 702.95 129.61 293.42 500 53.36" />
        <g class="cls-8">
            <path class="cls-9"
                d="M501,67.07,241.78,245.41,159.57,398.73,633.15,786.87V930.5L471,954.71l-91.18-37.17L198.2,764.12l-90.37-62V417.29l18.56-110.55,58.9-62.14L456.43,53.36,502,34.8,823.58,236.13l-17.75,23.8ZM147,468.13l4.44,232.8,60.12,38.33,21.2-47.5Z" />
            <path class="cls-9"
                d="M884.06,327.72l16.18,382.49-42.76,42-87.15,34.7L767,704.56l41.29-354.25ZM859.49,449.57l-29.27,20.26L817.94,717.47l33.89-25Z" />
            <polygon class="cls-10"
                points="469.74 34.8 46.09 796.96 -58 525.82 129.61 122.75 469.74 34.8" />
            <polygon class="cls-10"
                points="559.77 53.36 119.93 858.69 381.38 985.78 757.82 154.22 559.77 53.36" />
            <polygon class="cls-11"
                points="878.86 476.4 509.53 962.2 737.24 919.21 958.75 828.43 878.86 476.4" />
        </g>
        <path class="cls-12"
            d="M481.44,305.29a5.34,5.34,0,0,1-1.72-.28,5.4,5.4,0,0,1-3.39-3.35c-1.38-4-33.77-97.16-35-129.48a5.44,5.44,0,0,1,1.54-4c8.32-8.49,50.68-50.85,67.92-50.85a5.42,5.42,0,0,1,2.93.86c29.87,19.23,63.64,39.93,68.46,41.31a5.41,5.41,0,0,1,3.75,6.58c-.24.92-24.16,92.42-28.1,125.55a5.42,5.42,0,0,1-5,4.76c-30,2.24-63.79,5.86-68.56,8.08A5.35,5.35,0,0,1,481.44,305.29Zm3-.91-.08.06ZM452.29,174.06c2.22,28.42,26,99.8,32.58,119.14,13.35-3.05,42.38-5.69,62.79-7.26,4.69-32.26,22-100,26.65-118.16-15-7.62-53.27-32-64.86-39.45C499.84,130.41,473.82,152.32,452.29,174.06Z" />
        <path class="cls-12"
            d="M327.72,333.13a5.75,5.75,0,0,1-1-.09,5.42,5.42,0,0,1-4-3.31l-21-52.45a5.4,5.4,0,0,1,1-5.64c9-10,55.17-59.89,77-59.89a5.42,5.42,0,0,1,5.27,4.18c.15.64,14.94,63.78,18.1,75.25a5.42,5.42,0,0,1-3.31,6.5c-15.72,5.94-58.62,23.58-68.17,33.74A5.4,5.4,0,0,1,327.72,333.13ZM313,276.41l17,42.41c16-11.28,48.85-24.6,61.47-29.52-3.86-15.23-12.61-52.35-15.8-65.92C360.8,228.48,331.2,256.63,313,276.41Z" />
        <path class="cls-12"
            d="M717.07,342.41a5.69,5.69,0,0,1-1.36-.17c-5.61-1.46-55.18-14.74-66.88-32.07a5.43,5.43,0,0,1-.46-5.22l31.47-71a5.41,5.41,0,0,1,8.41-2c21.14,17.59,57,46.51,63.25,49.22a7.58,7.58,0,0,1,4.4,5.39c.94,4.27-.47,11.16-17,32.55-8.65,11.18-17.4,21.05-17.76,21.46A5.45,5.45,0,0,1,717.07,342.41Zm-57.45-36.13c9.28,9.39,37.1,19.51,55.6,24.62C728.89,315.22,742.84,296.65,745,290c-11.18-6.61-43.67-33.14-58.16-45.11Z" />
        <path class="cls-12"
            d="M495.72,858.09a5.42,5.42,0,0,1-2.93-.86c-29.87-19.22-63.64-39.93-68.46-41.31a5.4,5.4,0,0,1-3.75-6.57c.24-.92,24.16-92.43,28.1-125.56a5.43,5.43,0,0,1,5-4.76c30-2.23,63.8-5.86,68.56-8.07a5.41,5.41,0,0,1,8,2.81c1.38,4,33.77,97.17,35,129.48a5.43,5.43,0,0,1-1.55,4C555.32,815.74,513,858.09,495.72,858.09ZM432.2,807.66c15.05,7.61,53.27,32,64.86,39.45,9.6-2.08,35.63-24,57.16-45.74-2.23-28.42-26-99.79-32.58-119.14-13.35,3.06-42.39,5.69-62.8,7.27C454.16,721.75,436.9,789.5,432.2,807.66ZM522.15,671l-.09,0Z" />
        <path class="cls-12"
            d="M739.52,742.32a5.41,5.41,0,0,1-5.27-4.18c-.15-.63-14.94-63.78-18.1-75.24a5.41,5.41,0,0,1,3.3-6.51c15.72-5.93,58.62-23.57,68.17-33.74a5.41,5.41,0,0,1,9,1.7l21,52.45a5.42,5.42,0,0,1-1,5.64C807.54,692.44,761.39,742.32,739.52,742.32Zm-11.7-77.55c3.87,15.24,12.61,52.36,15.8,65.92,14.86-5.09,44.46-33.25,62.64-53l-17-42.42C773.27,646.54,740.45,659.85,727.82,664.77Z" />
        <path class="cls-12"
            d="M283,737.48a5.47,5.47,0,0,1-3.47-1.25c-21.14-17.59-57-46.52-63.25-49.23a7.57,7.57,0,0,1-4.39-5.38c-1-4.27.46-11.17,17-32.55,8.66-11.19,17.4-21.05,17.77-21.47a5.42,5.42,0,0,1,5.41-1.64c5.61,1.45,55.17,14.73,66.87,32.07a5.4,5.4,0,0,1,.47,5.22l-31.47,71a5.45,5.45,0,0,1-3.72,3.08A5.73,5.73,0,0,1,283,737.48ZM222.8,678.23c11.18,6.61,43.66,33.13,58.16,45.1l27.22-61.42c-9.29-9.39-37.1-19.5-55.61-24.61C238.9,653,225,671.55,222.8,678.23Z" />
        <path class="cls-12"
            d="M592,613.54c-81.53,0-179.35-12.55-268.38-34.44-84.3-20.72-147.11-46.42-168-68.74a5.42,5.42,0,0,1,0-7.39c1.5-1.62,37.6-40.08,101.71-79.11,59.18-36,154.14-79,270.52-79s201.45,38.3,252.29,70.43c55.22,34.9,82.49,69.39,83.63,70.85a5.4,5.4,0,0,1,0,6.62C862.84,494,840,523.52,795,553.33,753.52,580.8,684.63,613.54,592,613.54Zm-424.73-107c22.71,19.83,82.48,43.25,158.94,62,88.22,21.69,185.1,34.13,265.79,34.13,89.74,0,156.47-31.63,196.66-58.16,35-23.14,56.56-46.54,63.8-55-8.18-9.42-34.44-37.52-78.52-65.32-49.57-31.25-132.5-68.49-246.09-68.49s-206.65,42-264.58,77.19C211.79,464.21,178,495.85,167.26,506.55Z" />
        <path class="cls-12"
            d="M531.87,504.18c-29.9,0-54.23-23-54.23-51.21s24.33-51.21,54.23-51.21,54.24,23,54.24,51.21S561.78,504.18,531.87,504.18Zm0-91.59c-23.93,0-43.4,18.11-43.4,40.38s19.47,40.38,43.4,40.38,43.41-18.11,43.41-40.38S555.81,412.59,531.87,412.59Z" />
        <polygon class="cls-12"
            points="540.96 410.99 483.05 461.67 533.28 403.36 540.96 410.99 540.96 410.99" />
        <polygon class="cls-12"
            points="484.48 472.56 551.85 413.05 492.12 480.23 484.48 472.56 484.48 472.56" />
        <polygon class="cls-12"
            points="574.22 425.56 501.01 490.72 566.59 417.89 574.22 425.56 574.22 425.56" />
        <polygon class="cls-12"
            points="584.31 444.92 516.32 498.76 577.08 436.87 584.31 444.92 584.31 444.92" />
        <path class="cls-12"
            d="M529.86,574.41c-76.4,0-138.56-54.47-138.56-121.41,0-41.54,23.83-79.76,63.74-102.22l5.31,9.43c-36.46,20.52-58.23,55.21-58.23,92.79,0,61,57.31,110.58,127.74,110.58S657.59,514,657.59,453c0-37.41-21.61-72-57.82-92.56l5.35-9.41c39.63,22.5,63.3,60.62,63.3,102C668.42,519.94,606.26,574.41,529.86,574.41Z" />
        <polygon class="cls-13"
            points="250.66 41.66 410.43 554.87 572.63 468.93 622.25 533.09 743.29 249.85 984.17 264.37 817.13 424.15 786.87 832.06 617.41 916.79 501.01 821.16 433.43 937.36 306.33 870.79 157.45 893.79 254.29 713.44 116.3 321.26 15.83 272.85 250.66 41.66" />
        <polygon class="cls-3"
            points="233.71 98.55 399.54 611.76 566.57 498.76 654.93 629.92 651.91 570 766.9 283.13 942.21 281.32 781.42 409.62 756 813.9 627.7 879.87 495.16 761.25 418.9 896.21 351.12 853.24 221 853.24 288.18 708.6 146.56 307.34 79.38 271.03 233.71 98.55" />
        <g class="cls-14">
            <path class="cls-15"
                d="M233,59.08l121.8,110.48L753.38,276.07l96.83-6.45,107.93,14.12L799,416.28,745.71,745.51,732.4,798.77,622.25,854.45l-49-52.65,76.26-147.67L546.6,552.45l-154.93,98L310,830.24H260.34l36.92-135L232.5,493.14l64.76-122.86-15.13-49.62L214.34,439.88l-40.55-98,71.42-118.62L220.39,150l-93.2,118L63,271.64ZM697.3,558.91,817.53,320.05l-38.33,3.63Z" />
            <polygon class="cls-16"
                points="132.84 310.77 179.79 331.88 316.02 689.83 277.28 821.77 362.01 821.77 401.35 847.79 483.05 724.33 625.88 838.71 728.77 785.46 786.87 413.25 886.12 542.77 841.34 864.74 630.73 937.36 472.16 960.97 164.01 937.36 -10.79 597.84 132.84 310.77" />
        </g>
    </g>
</svg>